<?xml version="1.0" encoding="UTF-8" standalone="no"?><!-- Generator: Gravit.io --><svg xmlns="http://www.w3.org/2000/svg" xmlns:xlink="http://www.w3.org/1999/xlink" style="isolation:isolate" viewBox="0 0 506 177.673" width="506pt" height="177.673pt"><defs><clipPath id="_clipPath_fPcT9d2Al6E2KLHaRVIDbbzEHP5kD03q"><rect width="506" height="177.673"/></clipPath></defs><g clip-path="url(#_clipPath_fPcT9d2Al6E2KLHaRVIDbbzEHP5kD03q)"><g><path d=" M 23.908 86.662 L 23.908 86.662 Q 13.1 86.662 8.556 80.971 L 8.556 80.971 L 8.556 80.971 Q 4.012 75.281 4.012 64.555 L 4.012 64.555 L 4.012 40.647 L 4.012 40.647 Q 4.012 29.675 8.515 24.067 L 8.515 24.067 L 8.515 24.067 Q 13.018 18.458 23.908 18.458 L 23.908 18.458 L 23.908 18.458 Q 34.306 18.458 38.646 23.453 L 38.646 23.453 L 38.646 23.453 Q 42.985 28.447 42.985 37.617 L 42.985 37.617 L 42.985 43.349 L 28.657 43.349 L 28.657 36.717 L 28.657 36.717 Q 28.657 32.869 27.838 30.822 L 27.838 30.822 L 27.838 30.822 Q 27.019 28.775 23.908 28.775 L 23.908 28.775 L 23.908 28.775 Q 20.797 28.775 19.814 30.944 L 19.814 30.944 L 19.814 30.944 Q 18.832 33.114 18.832 36.962 L 18.832 36.962 L 18.832 68.158 L 18.832 68.158 Q 18.832 72.088 19.855 74.176 L 19.855 74.176 L 19.855 74.176 Q 20.879 76.263 23.908 76.263 L 23.908 76.263 L 23.908 76.263 Q 26.938 76.263 27.797 74.176 L 27.797 74.176 L 27.797 74.176 Q 28.657 72.088 28.657 68.158 L 28.657 68.158 L 28.657 61.198 L 42.985 61.198 L 42.985 66.929 L 42.985 66.929 Q 42.985 76.263 38.646 81.463 L 38.646 81.463 L 38.646 81.463 Q 34.306 86.662 23.908 86.662 L 23.908 86.662 L 23.908 86.662 Z  M 51.091 85.679 L 51.091 19.359 L 65.747 19.359 L 65.747 85.679 L 51.091 85.679 L 51.091 85.679 Z  M 75.654 85.679 L 75.654 19.359 L 85.971 19.359 L 99.562 51.291 L 99.562 19.359 L 111.68 19.359 L 111.68 85.679 L 101.773 85.679 L 88.182 51.291 L 88.182 85.679 L 75.654 85.679 L 75.654 85.679 Z  M 121.587 85.679 L 121.587 19.359 L 151.391 19.359 L 151.391 29.348 L 136.243 29.348 L 136.243 45.805 L 147.788 45.805 L 147.788 55.958 L 136.243 55.958 L 136.243 75.772 L 151.554 75.772 L 151.554 85.679 L 121.587 85.679 L 121.587 85.679 Z " fill="rgb(0,0,0)"/><rect x="164.573" y="18.838" width="17.226" height="142.466" transform="matrix(1,0,0,1,0,0)" fill="rgb(255,50,9)"/><path d=" M 194.622 157.456 L 195.768 91.136 L 211.488 91.136 L 218.775 129.7 L 226.636 91.136 L 241.783 91.136 L 242.929 157.456 L 232.531 157.456 L 231.303 113.324 L 223.606 157.456 L 214.354 157.456 L 206.166 112.997 L 205.184 157.456 L 194.622 157.456 L 194.622 157.456 Z  M 249.316 157.456 L 261.843 91.136 L 278.546 91.136 L 290.909 157.456 L 277.399 157.456 L 275.189 143.455 L 265.445 143.455 L 263.153 157.456 L 249.316 157.456 L 249.316 157.456 Z  M 266.755 134.694 L 273.797 134.694 L 270.276 108.821 L 266.755 134.694 L 266.755 134.694 Z  M 300.079 157.456 L 300.079 102.025 L 290.09 102.025 L 290.09 91.136 L 324.724 91.136 L 324.724 102.025 L 314.817 102.025 L 314.817 157.456 L 300.079 157.456 L 300.079 157.456 Z  M 330.619 157.456 L 330.619 91.136 L 345.275 91.136 L 345.275 157.456 L 330.619 157.456 L 330.619 157.456 Z  M 372.786 158.439 L 372.786 158.439 Q 363.288 158.439 358.662 153.403 L 358.662 153.403 L 358.662 153.403 Q 354.036 148.368 353.709 137.396 L 353.709 137.396 L 366.236 135.513 L 366.236 135.513 Q 366.318 141.817 367.751 144.56 L 367.751 144.56 L 367.751 144.56 Q 369.183 147.303 372.049 147.303 L 372.049 147.303 L 372.049 147.303 Q 375.734 147.303 375.734 142.472 L 375.734 142.472 L 375.734 142.472 Q 375.734 138.624 373.973 135.84 L 373.973 135.84 L 373.973 135.84 Q 372.213 133.057 368.447 129.863 L 368.447 129.863 L 362.715 124.869 L 362.715 124.869 Q 358.458 121.266 356.124 117.213 L 356.124 117.213 L 356.124 117.213 Q 353.791 113.161 353.791 107.593 L 353.791 107.593 L 353.791 107.593 Q 353.791 99.241 358.744 94.738 L 358.744 94.738 L 358.744 94.738 Q 363.698 90.235 372.377 90.235 L 372.377 90.235 L 372.377 90.235 Q 381.793 90.235 385.19 95.721 L 385.19 95.721 L 385.19 95.721 Q 388.588 101.206 388.834 109.067 L 388.834 109.067 L 376.225 110.622 L 376.225 110.622 Q 376.061 105.464 375.283 103.212 L 375.283 103.212 L 375.283 103.212 Q 374.506 100.961 371.885 100.961 L 371.885 100.961 L 371.885 100.961 Q 370.002 100.961 368.979 102.557 L 368.979 102.557 L 368.979 102.557 Q 367.955 104.154 367.955 106.119 L 367.955 106.119 L 367.955 106.119 Q 367.955 109.476 369.47 111.769 L 369.47 111.769 L 369.47 111.769 Q 370.985 114.061 374.342 117.009 L 374.342 117.009 L 379.828 121.839 L 379.828 121.839 Q 384.74 126.015 387.442 130.682 L 387.442 130.682 L 387.442 130.682 Q 390.144 135.349 390.144 141.736 L 390.144 141.736 L 390.144 141.736 Q 390.144 146.403 387.974 150.21 L 387.974 150.21 L 387.974 150.21 Q 385.805 154.017 381.874 156.228 L 381.874 156.228 L 381.874 156.228 Q 377.944 158.439 372.786 158.439 L 372.786 158.439 L 372.786 158.439 Z  M 396.367 157.456 L 397.513 91.136 L 413.233 91.136 L 420.52 129.7 L 428.381 91.136 L 443.528 91.136 L 444.674 157.456 L 434.276 157.456 L 433.048 113.324 L 425.351 157.456 L 416.099 157.456 L 407.911 112.997 L 406.929 157.456 L 396.367 157.456 L 396.367 157.456 Z  M 473.249 158.439 L 473.249 158.439 Q 462.523 158.439 457.938 152.912 L 457.938 152.912 L 457.938 152.912 Q 453.353 147.385 453.353 136.577 L 453.353 136.577 L 453.353 111.932 L 453.353 111.932 Q 453.353 101.125 457.938 95.68 L 457.938 95.68 L 457.938 95.68 Q 462.523 90.235 473.249 90.235 L 473.249 90.235 L 473.249 90.235 Q 484.057 90.235 488.683 95.721 L 488.683 95.721 L 488.683 95.721 Q 493.309 101.206 493.309 111.932 L 493.309 111.932 L 493.309 136.577 L 493.309 136.577 Q 493.309 147.385 488.683 152.912 L 488.683 152.912 L 488.683 152.912 Q 484.057 158.439 473.249 158.439 L 473.249 158.439 L 473.249 158.439 Z  M 473.249 148.04 L 473.249 148.04 Q 476.361 148.04 477.343 145.952 L 477.343 145.952 L 477.343 145.952 Q 478.326 143.864 478.326 140.262 L 478.326 140.262 L 478.326 108.33 L 478.326 108.33 Q 478.326 104.645 477.343 102.598 L 477.343 102.598 L 477.343 102.598 Q 476.361 100.551 473.249 100.551 L 473.249 100.551 L 473.249 100.551 Q 470.302 100.551 469.319 102.639 L 469.319 102.639 L 469.319 102.639 Q 468.337 104.727 468.337 108.33 L 468.337 108.33 L 468.337 140.262 L 468.337 140.262 Q 468.337 143.864 469.237 145.952 L 469.237 145.952 L 469.237 145.952 Q 470.138 148.04 473.249 148.04 L 473.249 148.04 L 473.249 148.04 Z " fill="rgb(0,0,0)"/></g></g></svg>